<?xml version="1.0" standalone="no"?><!DOCTYPE svg PUBLIC "-//W3C//DTD SVG 1.1//EN" "http://www.w3.org/Graphics/SVG/1.1/DTD/svg11.dtd"><svg class="icon" width="32px" height="32.00px" viewBox="0 0 1024 1024" version="1.1" xmlns="http://www.w3.org/2000/svg"><path fill="#ffffff" d="M662.755556 796.444444h-284.444445v142.222223h-256v56.888889h796.444445v-56.888889h-256zM924.444444 28.444444H116.622222C73.955556 28.444444 36.977778 62.577778 36.977778 108.088889v526.222222c0 42.666667 36.977778 79.644444 79.644444 79.644445h804.977778c45.511111 0 79.644444-34.133333 79.644444-79.644445V108.088889C1004.088889 62.577778 967.111111 28.444444 924.444444 28.444444z m25.6 603.022223c0 14.222222-11.377778 25.6-25.6 25.6H116.622222c-14.222222 0-25.6-11.377778-25.6-25.6V108.088889c0-14.222222 11.377778-25.6 25.6-25.6h804.977778c14.222222 0 25.6 11.377778 25.6 25.6v523.377778zM625.777778 449.422222c22.755556-25.6 36.977778-56.888889 36.977778-93.866666h-56.888889c0 48.355556-36.977778 85.333333-85.333334 85.333333s-85.333333-36.977778-85.333333-85.333333 36.977778-85.333333 85.333333-85.333334v-56.888889c-36.977778 0-71.111111 14.222222-96.711111 39.822223L312.888889 142.222222H159.288889v56.888889h130.844444l102.4 102.4c-8.533333 17.066667-11.377778 36.977778-11.377777 54.044445 0 79.644444 62.577778 142.222222 142.222222 142.222222 22.755556 0 42.666667-5.688889 59.733333-14.222222l113.777778 113.777777h176.355555v-56.888889h-150.755555L625.777778 449.422222zM159.288889 341.333333h142.222222v56.888889h-142.222222zM159.288889 540.444444h170.666667v56.888889h-170.666667zM614.4 201.955556c-5.688889-2.844444-11.377778-2.844444-14.222222-2.844445-31.288889 0-56.888889 25.6-56.888889 56.888889s25.6 56.888889 56.888889 56.888889 56.888889-25.6 56.888889-56.888889c0-5.688889 0-8.533333-2.844445-14.222222L696.888889 199.111111h173.511111V142.222222h-196.266667l-59.733333 59.733334z" /></svg>