<?xml version="1.0" standalone="no"?><!DOCTYPE svg PUBLIC "-//W3C//DTD SVG 1.1//EN" "http://www.w3.org/Graphics/SVG/1.1/DTD/svg11.dtd"><svg class="icon" width="32px" height="31.94px" viewBox="0 0 1026 1024" version="1.1" xmlns="http://www.w3.org/2000/svg"><path fill="#ffffff" d="M281.6 164.977778H2.844444v824.888889h1024V315.733333H443.733333L281.6 164.977778z m691.2 768H56.888889v-711.111111h204.8l162.133333 153.6h548.977778v557.511111zM512 193.422222l-156.444444-156.444444H59.733333v56.888889h270.222223l156.444444 156.444444h540.444444v-56.888889zM361.244444 483.555556l-159.288888 150.755555 159.288888 147.911111 39.822223-42.666666-116.622223-105.244445 116.622223-108.088889zM694.044444 782.222222l159.288889-147.911111-159.288889-150.755555-39.822222 42.666666 116.622222 108.088889L654.222222 739.555556zM431.388444 823.011556l113.720889-369.749334 54.385778 16.725334-113.720889 369.749333z" /></svg>