<?xml version="1.0" standalone="no"?><!DOCTYPE svg PUBLIC "-//W3C//DTD SVG 1.1//EN" "http://www.w3.org/Graphics/SVG/1.1/DTD/svg11.dtd"><svg class="icon" width="32px" height="32.00px" viewBox="0 0 1024 1024" version="1.1" xmlns="http://www.w3.org/2000/svg"><path fill="#ffffff" d="M736.232934 118.192202h-448.922521L62.848129 506.970675 287.309389 895.749148h448.922521l224.46126-388.778473L736.232934 118.192202zM714.634073 858.33945H308.90825l-202.862399-351.368775L308.909274 155.602924h405.725823l202.862399 351.368775L714.634073 858.33945z"  /><path fill="#ffffff" d="M702.027997 467.579759c-1.821492 0-3.613291 0.121842-5.377446 0.334811l-57.531092-89.131266c9.021454-11.03134 14.444974-25.115907 14.444974-40.445518 0-35.285136-28.706673-63.992833-63.992833-63.992833s-63.992833 28.707697-63.992833 63.992833c0 20.231974 9.448414 38.289216 24.153455 50.023965L432.361176 623.290191a57.620171 57.620171 0 0 0-6.604061-0.392148 57.306862 57.306862 0 0 0-12.382869 1.360744l-56.37615-88.752428a44.318876 44.318876 0 0 0 6.635801-23.387588c0-24.597821-19.941191-44.539012-44.539012-44.539012s-44.539012 19.941191-44.539011 44.539012 19.941191 44.539012 44.539011 44.539011c1.710912 0 3.397252-0.106484 5.057994-0.293855l56.384341 88.764715c-7.465148 9.655239-11.918025 21.757563-11.918025 34.907322 0 31.556146 25.581775 57.137921 57.13792 57.137921s57.137921-25.581775 57.137921-57.137921c0-15.254867-5.989729-29.102916-15.731998-39.349961l119.124962-238.438319a63.816725 63.816725 0 0 0 20.238117-2.214664l57.425632 88.967444a44.329115 44.329115 0 0 0-6.462764 23.117283c0 24.597821 19.941191 44.539012 44.539012 44.539011s44.539012-19.941191 44.539011-44.539011c0-24.596797-19.941191-44.537988-44.539011-44.537988zM564.48641 338.33881c0-13.831667 11.2525-25.08519 25.08519-25.08519s25.08519 11.253524 25.08519 25.08519-11.2525 25.08519-25.08519 25.085191-25.08519-11.253524-25.08519-25.085191z"  /></svg>