<?xml version="1.0" standalone="no"?><!DOCTYPE svg PUBLIC "-//W3C//DTD SVG 1.1//EN" "http://www.w3.org/Graphics/SVG/1.1/DTD/svg11.dtd"><svg class="icon" width="32px" height="32.00px" viewBox="0 0 1024 1024" version="1.1" xmlns="http://www.w3.org/2000/svg"><path fill="#ffffff" d="M921.6 158.4l-40.8-0.8c-0.8 0-92-1.6-185.6-40.8-96-40-158.4-85.6-159.2-85.6l-24.8-17.6-24 17.6c-0.8 0.8-62.4 46.4-158.4 85.6-93.6 38.4-184.8 40.8-185.6 40.8l-40.8 0.8V576.8c0 210.4 266.4 432.8 409.6 432.8s409.6-222.4 409.6-432.8v-418.4z m-62.4 423.2c0 165.6-249.6 374.4-345.6 374.4s-348-212-348-377.6v-356.8c41.6-4.8 115.2-16 184.8-44.8 71.2-29.6 135.2-63.2 164-82.4 49.6 32 101.6 60 155.2 82.4 69.6 28.8 147.2 40 188.8 44.8l0.8 360zM324.8 311.2h65.6v64h-65.6zM324.8 471.2h65.6v64h-65.6zM324.8 632v63.2h64.8v-63.2zM454.4 333.6h278.4v43.2h-278.4zM454.4 493.6h278.4v43.2h-278.4zM454.4 651.2h278.4v43.2h-278.4z" /></svg>