<?xml version="1.0" standalone="no"?><!DOCTYPE svg PUBLIC "-//W3C//DTD SVG 1.1//EN" "http://www.w3.org/Graphics/SVG/1.1/DTD/svg11.dtd"><svg class="icon" width="32px" height="32.00px" viewBox="0 0 1024 1024" version="1.1" xmlns="http://www.w3.org/2000/svg"><path fill="#ffffff" d="M992 384l-352 0 0-352c0-17.664-14.336-32-32-32l-192 0c-17.664 0-32 14.336-32 32l0 352-352 0c-17.664 0-32 14.336-32 32l0 192c0 17.664 14.336 32 32 32l352 0 0 352c0 17.664 14.336 32 32 32l192 0c17.664 0 32-14.336 32-32l0-352 352 0c17.664 0 32-14.336 32-32l0-192c0-17.664-14.336-32-32-32z" /></svg>