<?xml version="1.0" standalone="no"?><!DOCTYPE svg PUBLIC "-//W3C//DTD SVG 1.1//EN" "http://www.w3.org/Graphics/SVG/1.1/DTD/svg11.dtd"><svg class="icon" width="32px" height="32.00px" viewBox="0 0 1024 1024" version="1.1" xmlns="http://www.w3.org/2000/svg"><path fill="#ffffff" d="M71.111111 179.2v204.8h73.955556c36.977778-113.777778 125.155556-201.955556 238.933333-238.933333v-56.888889c-108.088889 31.288889-201.955556 102.4-256 199.111111V179.2c34.133333-11.377778 56.888889-42.666667 56.888889-79.644444 0-48.355556-36.977778-85.333333-85.333333-85.333334s-85.333333 36.977778-85.333334 85.333334c0 36.977778 22.755556 68.266667 56.888889 79.644444zM924.444444 816.355556v-204.8h-73.955555c-36.977778 113.777778-125.155556 201.955556-238.933333 238.933333V910.222222c108.088889-31.288889 201.955556-102.4 256-199.111111v105.244445c-34.133333 11.377778-56.888889 42.666667-56.888889 79.644444 0 48.355556 36.977778 85.333333 85.333333 85.333333s85.333333-36.977778 85.333333-85.333333c0-36.977778-22.755556-68.266667-56.888889-79.644444zM850.488889 384H910.222222c-31.288889-108.088889-102.4-201.955556-199.111111-256h105.244445c11.377778 34.133333 42.666667 56.888889 79.644444 56.888889 48.355556 0 85.333333-36.977778 85.333333-85.333333s-36.977778-85.333333-85.333333-85.333334c-36.977778 0-68.266667 22.755556-79.644444 56.888889h-204.8v73.955556c113.777778 36.977778 201.955556 125.155556 238.933333 238.933333zM145.066667 611.555556h-56.888889c31.288889 108.088889 102.4 201.955556 199.111111 256H179.2c-11.377778-34.133333-42.666667-56.888889-79.644444-56.888889-48.355556 0-85.333333 36.977778-85.333334 85.333333s36.977778 85.333333 85.333334 85.333333c36.977778 0 68.266667-22.755556 79.644444-56.888889h204.8v-73.955555c-113.777778-36.977778-201.955556-125.155556-238.933333-238.933333zM753.777778 497.777778c0-142.222222-113.777778-256-256-256v56.888889c110.933333 0 199.111111 88.177778 199.111111 199.111111s-88.177778 199.111111-199.111111 199.111111-199.111111-88.177778-199.111111-199.111111h-56.888889c0 142.222222 113.777778 256 256 256s256-113.777778 256-256zM497.777778 611.555556c62.577778 0 113.777778-51.2 113.777778-113.777778s-51.2-113.777778-113.777778-113.777778-113.777778 51.2-113.777778 113.777778 51.2 113.777778 113.777778 113.777778z m0-170.666667c31.288889 0 56.888889 25.6 56.888889 56.888889s-25.6 56.888889-56.888889 56.888889-56.888889-25.6-56.888889-56.888889 25.6-56.888889 56.888889-56.888889z" /></svg>