<?xml version="1.0" standalone="no"?><!DOCTYPE svg PUBLIC "-//W3C//DTD SVG 1.1//EN" "http://www.w3.org/Graphics/SVG/1.1/DTD/svg11.dtd"><svg class="icon" width="32px" height="31.84px" viewBox="0 0 1029 1024" version="1.1" xmlns="http://www.w3.org/2000/svg"><path fill="#ffffff" d="M147.911111 207.644444c36.977778 0 68.266667-22.755556 79.644445-56.888888h236.088888l201.955556 199.111111h82.488889c11.377778 34.133333 42.666667 56.888889 79.644444 56.888889 48.355556 0 85.333333-36.977778 85.333334-85.333334s-36.977778-85.333333-85.333334-85.333333c-36.977778 0-68.266667 22.755556-79.644444 56.888889h-59.733333l-201.955556-199.111111H227.555556c-11.377778-34.133333-42.666667-56.888889-79.644445-56.888889-48.355556 0-85.333333 36.977778-85.333333 85.333333s36.977778 85.333333 85.333333 85.333333zM944.355556 492.088889c-48.355556 0-85.333333 36.977778-85.333334 85.333333H531.911111l-210.488889 241.777778H173.511111c-5.688889-28.444444-22.755556-54.044444-54.044444-65.422222-42.666667-17.066667-93.866667 5.688889-110.933334 48.355555-17.066667 42.666667 5.688889 93.866667 48.355556 110.933334 39.822222 14.222222 82.488889 0 105.244444-36.977778h182.044445l210.488889-241.777778H881.777778c14.222222 17.066667 36.977778 28.444444 62.577778 28.444445 48.355556 0 85.333333-36.977778 85.333333-85.333334s-39.822222-85.333333-85.333333-85.333333zM91.022222 543.288889c36.977778 0 68.266667-22.755556 79.644445-56.888889h125.155555c11.377778 34.133333 42.666667 56.888889 79.644445 56.888889 48.355556 0 85.333333-36.977778 85.333333-85.333333s-36.977778-85.333333-85.333333-85.333334c-36.977778 0-68.266667 22.755556-79.644445 56.888889H170.666667c-11.377778-34.133333-42.666667-56.888889-79.644445-56.888889-48.355556 0-85.333333 36.977778-85.333333 85.333334s36.977778 85.333333 85.333333 85.333333zM716.8 861.866667m-85.333333 0a85.333333 85.333333 0 1 0 170.666666 0 85.333333 85.333333 0 1 0-170.666666 0Z" /></svg>